Coordinates
version=1
nRows=5
nColumns=40
inDegrees=yes

Units are S.I. units (second, meters, Newtons, ...)
Angles are in degrees.

endheader
time	pelvis_tilt	pelvis_list	pelvis_rotation	pelvis_tx	pelvis_ty	pelvis_tz	hip_flexion_r	hip_adduction_r	hip_rotation_r	knee_angle_r	knee_angle_r_beta	ankle_angle_r	subtalar_angle_r	mtp_angle_r	hip_flexion_l	hip_adduction_l	hip_rotation_l	knee_angle_l	knee_angle_l_beta	ankle_angle_l	subtalar_angle_l	mtp_angle_l	lumbar_extension	lumbar_bending	lumbar_rotation	arm_flex_r	arm_add_r	arm_rot_r	elbow_flex_r	pro_sup_r	wrist_flex_r	wrist_dev_r	arm_flex_l	arm_add_l	arm_rot_l	elbow_flex_l	pro_sup_l	wrist_flex_l	wrist_dev_l
     35.22000000	     -4.07169838	     -4.99893773	      4.48019530	      0.83715121	      0.91647040	      0.46171486	      2.76522472	      1.00569331	    -11.73228263	     27.75900904	     27.75900904	     17.78454021	     -6.36059872	     -6.61100138	     28.57488098	     -5.60793357	      0.26309710	     28.91991195	     28.91991195	      7.88258847	    -15.67981306	      4.38252372	     -7.65367966	      3.01158825	      3.45648120	     33.12981612	    -14.55288245	      4.42997213	     92.33528168	     44.27449255	      0.00000000	      0.00000000	     -7.40349358	     -9.02962297	     -4.31869216	     33.33499489	     45.32938911	      0.00000000	      0.00000000
     35.23285714	     -4.09283202	     -4.85379513	      4.17575734	      0.83757905	      0.91726640	      0.45970352	      3.91599201	      0.37125943	    -11.40017430	     30.53313636	     30.53313636	     16.08498544	     -7.77217767	     -9.54397529	     27.98344517	     -5.50551837	     -0.16399373	     28.88902908	     28.88902908	      8.44718779	    -15.52244572	      4.22068727	     -7.71960917	      2.76156452	      3.32137421	     31.96187943	    -14.36747399	      4.79944164	     91.12833502	     44.36429807	      0.00000000	      0.00000000	     -6.78430711	     -9.13630716	     -4.94184264	     33.83988385	     45.45889704	      0.00000000	      0.00000000
     35.24571429	     -4.08562510	     -4.68969699	      3.86267680	      0.83791800	      0.91806565	      0.45770196	      5.26563702	     -0.34567845	    -11.15271852	     33.77520614	     33.77520614	     15.04533571	     -8.65121380	    -10.09779583	     27.33083074	     -5.39325522	     -0.63673122	     28.80269226	     28.80269226	      8.95710752	    -15.34185258	      3.95165940	     -7.84423091	      2.48224057	      3.26199419	     30.56691624	    -14.29189922	      5.12776984	     90.26495945	     44.38371594	      0.00000000	      0.00000000	     -6.02326579	     -9.33360223	     -5.03454288	     34.17859674	     45.48651578	      0.00000000	      0.00000000
     35.25857143	     -4.10629149	     -4.50399613	      3.56715688	      0.83810804	      0.91878825	      0.45560764	      6.75296065	     -1.07783564	    -10.84567367	     37.11539504	     37.11539504	     13.71636023	     -9.75026191	    -10.63404428	     26.71332959	     -5.24867533	     -1.17159808	     28.68912171	     28.68912171	      9.36391070	    -15.12419035	      3.69178629	     -7.92527116	      2.28760286	      3.22419233	     29.11898910	    -14.26146606	      5.40273630	     89.12141990	     44.41274143	      0.00000000	      0.00000000	     -5.22740735	     -9.53989147	     -5.12708335	     34.57695917	     45.51406600	      0.00000000	      0.00000000
     35.27142857	     -4.11992845	     -4.34072510	      3.28928981	      0.83826620	      0.91942280	      0.45355954	      8.30862288	     -1.75988835	    -10.50718830	     40.49672853	     40.49672853	     12.16224678	    -10.99144559	    -11.06615551	     26.07394441	     -5.11612442	     -1.65743917	     28.53435080	     28.53435080	      9.80318711	    -14.86890193	      3.39508391	     -7.99104742	      2.10457757	      3.15016296	     27.61966303	    -14.21328909	      5.63567293	     87.77528310	     44.44901917	      0.00000000	      0.00000000	     -4.40670493	     -9.74113690	     -5.20899391	     35.01664920	     45.54030410	      0.00000000	      0.00000000
